<?xml version="1.0" encoding="UTF-8" standalone="no"?>
<!-- Generator: Adobe Illustrator 16.0.0, SVG Export Plug-In . SVG Version: 6.00 Build 0)  -->

<svg
   xmlns:dc="http://purl.org/dc/elements/1.1/"
   xmlns:cc="http://creativecommons.org/ns#"
   xmlns:rdf="http://www.w3.org/1999/02/22-rdf-syntax-ns#"
   xmlns:svg="http://www.w3.org/2000/svg"
   xmlns="http://www.w3.org/2000/svg"
   xmlns:sodipodi="http://sodipodi.sourceforge.net/DTD/sodipodi-0.dtd"
   xmlns:inkscape="http://www.inkscape.org/namespaces/inkscape"
   version="1.1"
   id="socialicious"
   x="0px"
   y="0px"
   width="20.000999"
   height="7.6999998"
   viewBox="0 0 20.000999 7.6999998"
   xml:space="preserve"
   inkscape:version="0.48.4 r9939"
   sodipodi:docname="icon_aboutme.svg"><metadata
   id="metadata11"><rdf:RDF><cc:Work
       rdf:about=""><dc:format>image/svg+xml</dc:format><dc:type
         rdf:resource="http://purl.org/dc/dcmitype/StillImage" /></cc:Work></rdf:RDF></metadata><defs
   id="defs9" /><sodipodi:namedview
   pagecolor="#ffffff"
   bordercolor="#666666"
   borderopacity="1"
   objecttolerance="10"
   gridtolerance="10"
   guidetolerance="10"
   inkscape:pageopacity="0"
   inkscape:pageshadow="2"
   inkscape:window-width="1280"
   inkscape:window-height="961"
   id="namedview7"
   showgrid="false"
   fit-margin-top="0"
   fit-margin-left="0"
   fit-margin-right="0"
   fit-margin-bottom="0"
   inkscape:zoom="4"
   inkscape:cx="18.572853"
   inkscape:cy="-21.857612"
   inkscape:window-x="-8"
   inkscape:window-y="168"
   inkscape:window-maximized="1"
   inkscape:current-layer="socialicious" />
<style
   type="text/css"
   id="style3">

	.st0{fill:#464342;}
	.st1{fill:#E04B26;}
	.st2{fill:#E74B24;}
	.st3{fill:#E94C88;}
	.st4{fill:#1AB6EA;}
	.st5{fill:#EA2429;}
	.st6{fill:#EC1E82;}
	.st7{fill:#B9B9BA;}
	.st8{fill:#EE3E53;}
	.st9{fill:#EE4977;}
	.st10{fill:#5496D0;}
	.st11{fill:#BBBBBB;}
	.st12{fill:#BCBCBC;}
	.st13{fill:#F16722;}
	.st14{fill:#5A471C;}
	.st15{fill:url(#SVGID_1_);}
	.st16{fill:url(#SVGID_2_);}
	.st17{fill:#2AA9E0;}
	.st18{fill-rule:evenodd;clip-rule:evenodd;fill:#BBBBBB;}
	.st19{fill-rule:evenodd;clip-rule:evenodd;fill:#BCBCBC;}
	.st20{fill:#C93C27;}
	.st21{fill:#638BB0;}
	.st22{fill:#CA2027;}
	.st23{fill:#30302F;}
	.st24{fill:#34373D;}
	.st25{fill:#00405D;}
	.st26{fill:#007EE5;}
	.st27{fill:#00A8E1;}
	.st28{fill-rule:evenodd;clip-rule:evenodd;fill:#FFFFFF;}
	.st29{fill:#035795;}
	.st30{fill:#3C5A97;}
	.st31{fill:#3F64AE;}
	.st32{fill:#3F729B;}
	.st33{fill:#A42F23;}
	.st34{fill:#75C044;}
	.st35{fill:#A72723;}
	.st36{fill:#DB2726;}
	.st37{fill:#DD3333;}
	.st38{fill:url(#soundcloud_2_);}
	.st39{fill:#442D86;}
	.st40{fill:#44556B;}

</style>
<path
   class="st12"
   d="m 9.00045,7.499478 c 0,0 0,-3.609375 0,-4.571875 0,-0.822137 -0.360018,-1.283331 -1.120056,-1.283331 -0.680034,0 -1.120056,0.48125 -1.420071,0.822137 0,1.804682 0,5.033069 0,5.033069 H 4.500225 c 0,0 0,-3.609375 0,-4.571875 0,-0.822137 -0.340017,-1.283331 -1.100055,-1.283331 -0.680034,0 -1.140057,0.48125 -1.440072,0.822137 V 7.499478 H 0 V 0.220567 H 1.960098 V 1.062766 C 2.300115,0.661716 3.040152,0 4.220211,0 5.260263,0 5.960298,0.441147 6.280314,1.323438 6.720336,0.681772 7.520376,0 8.700435,0 c 1.420071,0 2.240112,0.842188 2.240112,2.486448 0,1.804699 0,5.033086 0,5.033086 H 9.00045 z m 5.40027,-3.007801 c 0.20001,0.9625 1.00005,1.64426 2.100105,1.64426 0.60003,0 1.480074,-0.220578 1.980099,-0.761989 l 0.980049,1.142985 C 18.580929,7.459375 17.240862,7.7 16.340817,7.7 14.140707,7.7 12.420621,6.115891 12.420621,3.85 12.420621,1.744534 14.0007,0 16.240812,0 18.40092,0 20.001,1.664317 20.001,3.85 v 0.641677 h -5.60028 z m 1.880094,-3.027869 c -1.140057,0 -1.780089,0.842176 -1.920096,1.764583 H 18.20091 C 18.10093,2.346091 17.480874,1.463808 16.280814,1.463808 z"
   id="path5"
   inkscape:connector-curvature="0"
   style="fill:#bcbcbc" />
</svg>