<?xml version="1.0" encoding="UTF-8" standalone="no"?>
<!-- Generator: Adobe Illustrator 16.0.0, SVG Export Plug-In . SVG Version: 6.00 Build 0)  -->

<svg
   xmlns:dc="http://purl.org/dc/elements/1.1/"
   xmlns:cc="http://creativecommons.org/ns#"
   xmlns:rdf="http://www.w3.org/1999/02/22-rdf-syntax-ns#"
   xmlns:svg="http://www.w3.org/2000/svg"
   xmlns="http://www.w3.org/2000/svg"
   xmlns:sodipodi="http://sodipodi.sourceforge.net/DTD/sodipodi-0.dtd"
   xmlns:inkscape="http://www.inkscape.org/namespaces/inkscape"
   version="1.1"
   id="socialicious"
   x="0px"
   y="0px"
   width="20"
   height="20"
   viewBox="0 0 20 20"
   xml:space="preserve"
   inkscape:version="0.48.4 r9939"
   sodipodi:docname="icon_googleplus-sign.svg"><metadata
   id="metadata3026"><rdf:RDF><cc:Work
       rdf:about=""><dc:format>image/svg+xml</dc:format><dc:type
         rdf:resource="http://purl.org/dc/dcmitype/StillImage" /></cc:Work></rdf:RDF></metadata><defs
   id="defs3024" /><sodipodi:namedview
   pagecolor="#ffffff"
   bordercolor="#666666"
   borderopacity="1"
   objecttolerance="10"
   gridtolerance="10"
   guidetolerance="10"
   inkscape:pageopacity="0"
   inkscape:pageshadow="2"
   inkscape:window-width="1280"
   inkscape:window-height="961"
   id="namedview3022"
   showgrid="false"
   inkscape:zoom="2.36"
   inkscape:cx="50"
   inkscape:cy="50"
   inkscape:window-x="-8"
   inkscape:window-y="168"
   inkscape:window-maximized="1"
   inkscape:current-layer="socialicious" />
<style
   type="text/css"
   id="style3013">

	.st0{fill:#464342;}
	.st1{fill:#E04B26;}
	.st2{fill:#E74B24;}
	.st3{fill:#E94C88;}
	.st4{fill:#1AB6EA;}
	.st5{fill:#EA2429;}
	.st6{fill:#EC1E82;}
	.st7{fill:#B9B9BA;}
	.st8{fill:#EE3E53;}
	.st9{fill:#EE4977;}
	.st10{fill:#5496D0;}
	.st11{fill:#BBBBBB;}
	.st12{fill:#BCBCBC;}
	.st13{fill:#F16722;}
	.st14{fill:#5A471C;}
	.st15{fill:url(#SVGID_1_);}
	.st16{fill:url(#SVGID_2_);}
	.st17{fill:#2AA9E0;}
	.st18{fill-rule:evenodd;clip-rule:evenodd;fill:#BBBBBB;}
	.st19{fill-rule:evenodd;clip-rule:evenodd;fill:#BCBCBC;}
	.st20{fill:#C93C27;}
	.st21{fill:#638BB0;}
	.st22{fill:#CA2027;}
	.st23{fill:#30302F;}
	.st24{fill:#34373D;}
	.st25{fill:#00405D;}
	.st26{fill:#007EE5;}
	.st27{fill:#00A8E1;}
	.st28{fill-rule:evenodd;clip-rule:evenodd;fill:#FFFFFF;}
	.st29{fill:#035795;}
	.st30{fill:#3C5A97;}
	.st31{fill:#3F64AE;}
	.st32{fill:#3F729B;}
	.st33{fill:#A42F23;}
	.st34{fill:#75C044;}
	.st35{fill:#A72723;}
	.st36{fill:#DB2726;}
	.st37{fill:#DD3333;}
	.st38{fill:url(#soundcloud_2_);}
	.st39{fill:#442D86;}
	.st40{fill:#44556B;}

</style>
<g
   id="googleplus_1_"
   transform="scale(0.2,0.2)">
	<path
   class="st23"
   d="m 44.1,58 c -0.7,-0.1 -1.1,-0.1 -1.9,-0.1 -0.7,0 -5.2,0.2 -8.6,1.3 -1.8,0.6 -7,2.6 -7,8.3 0,5.7 5.6,9.8 14.4,9.8 7.8,0 12,-3.7 12,-8.7 0,-4.1 -2.7,-6.3 -8.9,-10.6 z"
   id="path3016"
   inkscape:connector-curvature="0"
   style="fill:#30302f" />
	<path
   class="st23"
   d="M 89.2,0 H 10.8 C 4.8,0 0,4.8 0,10.8 v 78.4 c 0,6 4.8,10.8 10.8,10.8 h 78.4 c 6,0 10.8,-4.8 10.8,-10.8 V 10.8 C 100,4.8 95.2,0 89.2,0 z M 36.8,80.7 C 25,80.7 19.5,75.1 19.5,69.1 c 0,-2.9 1.5,-7 6.3,-9.8 5.1,-3.1 11.9,-3.5 15.6,-3.7 -1.1,-1.4 -2.5,-3 -2.5,-5.5 0,-1.4 0.4,-2.2 0.8,-3.1 -0.9,0.1 -1.8,0.2 -2.6,0.2 -8.7,0 -13.6,-6.4 -13.6,-12.6 0,-3.7 1.2,-8.1 4.7,-11.1 4.7,-3.8 10.6,-4.2 15,-4.2 l 17,0 -5.2,3.2 h -4.8 c 1.8,1.5 5.5,4.5 5.5,10.6 0,6 -3.4,8.8 -6.9,11.4 -1.1,1 -2.3,2.2 -2.3,3.9 0,1.8 1.2,2.7 2.1,3.5 l 2.9,2.2 c 3.6,3 6.9,5.7 6.9,11.3 0.1,7.6 -7.6,15.3 -21.6,15.3 z M 80.6,50.5 h -8.1 v 8.1 h -4.1 v -8.1 h -8.1 v -4 h 8.1 v -8.1 h 4.1 v 8.1 h 8.1 v 4 z"
   id="path3018"
   inkscape:connector-curvature="0"
   style="fill:#30302f" />
	<path
   class="st23"
   d="m 48.5,37 c 0,-5.8 -3.5,-14.8 -10.3,-14.8 -2.1,0 -4.4,0.8 -5.7,2.5 -1.4,1.7 -1.8,4.1 -1.8,6.2 0,5.4 3.2,14.3 10.2,14.3 2,0 4.2,-1.2 5.6,-2.5 1.9,-1.9 2,-4.2 2,-5.7 z"
   id="path3020"
   inkscape:connector-curvature="0"
   style="fill:#30302f" />
</g>
</svg>