<?xml version="1.0" encoding="UTF-8" standalone="no"?>
<!-- Generator: Adobe Illustrator 16.0.0, SVG Export Plug-In . SVG Version: 6.00 Build 0)  -->

<svg
   xmlns:dc="http://purl.org/dc/elements/1.1/"
   xmlns:cc="http://creativecommons.org/ns#"
   xmlns:rdf="http://www.w3.org/1999/02/22-rdf-syntax-ns#"
   xmlns:svg="http://www.w3.org/2000/svg"
   xmlns="http://www.w3.org/2000/svg"
   xmlns:sodipodi="http://sodipodi.sourceforge.net/DTD/sodipodi-0.dtd"
   xmlns:inkscape="http://www.inkscape.org/namespaces/inkscape"
   version="1.1"
   id="socialicious"
   x="0px"
   y="0px"
   width="20"
   height="20"
   viewBox="0 0 20 20"
   xml:space="preserve"
   inkscape:version="0.48.4 r9939"
   sodipodi:docname="icon_linkedin-sign.svg"><metadata
   id="metadata3050"><rdf:RDF><cc:Work
       rdf:about=""><dc:format>image/svg+xml</dc:format><dc:type
         rdf:resource="http://purl.org/dc/dcmitype/StillImage" /><dc:title></dc:title></cc:Work></rdf:RDF></metadata><defs
   id="defs3048" /><sodipodi:namedview
   pagecolor="#ffffff"
   bordercolor="#666666"
   borderopacity="1"
   objecttolerance="10"
   gridtolerance="10"
   guidetolerance="10"
   inkscape:pageopacity="0"
   inkscape:pageshadow="2"
   inkscape:window-width="1280"
   inkscape:window-height="961"
   id="namedview3046"
   showgrid="false"
   inkscape:zoom="2.36"
   inkscape:cx="-22.033898"
   inkscape:cy="50"
   inkscape:window-x="-8"
   inkscape:window-y="168"
   inkscape:window-maximized="1"
   inkscape:current-layer="socialicious" />
<style
   type="text/css"
   id="style3029">

	.st0{fill:#464342;}
	.st1{fill:#E04B26;}
	.st2{fill:#E74B24;}
	.st3{fill:#E94C88;}
	.st4{fill:#1AB6EA;}
	.st5{fill:#EA2429;}
	.st6{fill:#EC1E82;}
	.st7{fill:#B9B9BA;}
	.st8{fill:#EE3E53;}
	.st9{fill:#EE4977;}
	.st10{fill:#5496D0;}
	.st11{fill:#BBBBBB;}
	.st12{fill:#BCBCBC;}
	.st13{fill:#F16722;}
	.st14{fill:#5A471C;}
	.st15{fill:url(#SVGID_1_);}
	.st16{fill:url(#SVGID_2_);}
	.st17{fill:#2AA9E0;}
	.st18{fill-rule:evenodd;clip-rule:evenodd;fill:#BBBBBB;}
	.st19{fill-rule:evenodd;clip-rule:evenodd;fill:#BCBCBC;}
	.st20{fill:#C93C27;}
	.st21{fill:#638BB0;}
	.st22{fill:#CA2027;}
	.st23{fill:#30302F;}
	.st24{fill:#34373D;}
	.st25{fill:#00405D;}
	.st26{fill:#007EE5;}
	.st27{fill:#00A8E1;}
	.st28{fill-rule:evenodd;clip-rule:evenodd;fill:#FFFFFF;}
	.st29{fill:#035795;}
	.st30{fill:#3C5A97;}
	.st31{fill:#3F64AE;}
	.st32{fill:#3F729B;}
	.st33{fill:#A42F23;}
	.st34{fill:#75C044;}
	.st35{fill:#A72723;}
	.st36{fill:#DB2726;}
	.st37{fill:#DD3333;}
	.st38{fill:url(#soundcloud_2_);}
	.st39{fill:#442D86;}
	.st40{fill:#44556B;}

</style>
<g
   id="linkedin_1_"
   transform="scale(0.2,0.2)">
	<linearGradient
   id="SVGID_1_"
   gradientUnits="userSpaceOnUse"
   x1="54.705101"
   y1="45.507801"
   x2="54.791"
   y2="45.507801">
		<stop
   offset="0"
   style="stop-color:#016699"
   id="stop3033" />
		<stop
   offset="1"
   style="stop-color:#016699"
   id="stop3035" />
	</linearGradient>
	<path
   class="st15"
   d="m 54.8,45.6 v -0.1 c 0,0 -0.1,0 0,0.1 l 0,0 z"
   id="path3037"
   style="fill:url(#SVGID_1_)"
   inkscape:connector-curvature="0" />
	<linearGradient
   id="SVGID_2_"
   gradientUnits="userSpaceOnUse"
   x1="0"
   y1="50"
   x2="100"
   y2="50">
		<stop
   offset="0"
   style="stop-color:#016699"
   id="stop3040" />
		<stop
   offset="1"
   style="stop-color:#016699"
   id="stop3042" />
	</linearGradient>
	<path
   class="st16"
   d="M 89.2,0 H 10.8 C 4.8,0 0,4.8 0,10.8 v 78.4 c 0,6 4.8,10.8 10.8,10.8 h 78.4 c 6,0 10.8,-4.8 10.8,-10.8 V 10.8 C 100,4.8 95.2,0 89.2,0 z m -55,79.7 H 20.9 v -40 h 13.3 v 40 z m -6.7,-45.4 0,0 c -4.5,0 -7.4,-3.1 -7.4,-6.9 0,-3.9 3,-6.9 7.5,-6.9 4.5,0 7.3,3 7.4,6.9 0,3.9 -2.9,6.9 -7.5,6.9 z M 82.1,79.7 H 68.8 V 58.4 c 0,-5.4 -1.9,-9 -6.7,-9 -3.7,0 -5.9,2.5 -6.8,4.9 -0.4,0.9 -0.4,2 -0.4,3.2 V 79.8 H 41.5 c 0,0 0.2,-36.2 0,-40 h 13.3 v 5.7 c 1.8,-2.7 4.9,-6.6 12,-6.6 8.7,0 15.3,5.7 15.3,18 v 22.8 z"
   id="path3044"
   style="fill:url(#SVGID_2_)"
   inkscape:connector-curvature="0" />
</g>
</svg>