<?xml version="1.0" encoding="UTF-8" standalone="no"?>
<!-- Generator: Adobe Illustrator 16.0.0, SVG Export Plug-In . SVG Version: 6.00 Build 0)  -->

<svg
   xmlns:dc="http://purl.org/dc/elements/1.1/"
   xmlns:cc="http://creativecommons.org/ns#"
   xmlns:rdf="http://www.w3.org/1999/02/22-rdf-syntax-ns#"
   xmlns:svg="http://www.w3.org/2000/svg"
   xmlns="http://www.w3.org/2000/svg"
   xmlns:sodipodi="http://sodipodi.sourceforge.net/DTD/sodipodi-0.dtd"
   xmlns:inkscape="http://www.inkscape.org/namespaces/inkscape"
   version="1.1"
   id="socialicious"
   x="0px"
   y="0px"
   width="20"
   height="20"
   viewBox="0 0 20 20"
   xml:space="preserve"
   inkscape:version="0.48.4 r9939"
   sodipodi:docname="icon_github.svg"><metadata
   id="metadata10"><rdf:RDF><cc:Work
       rdf:about=""><dc:format>image/svg+xml</dc:format><dc:type
         rdf:resource="http://purl.org/dc/dcmitype/StillImage" /></cc:Work></rdf:RDF></metadata><defs
   id="defs8" /><sodipodi:namedview
   pagecolor="#ffffff"
   bordercolor="#666666"
   borderopacity="1"
   objecttolerance="10"
   gridtolerance="10"
   guidetolerance="10"
   inkscape:pageopacity="0"
   inkscape:pageshadow="2"
   inkscape:window-width="1280"
   inkscape:window-height="961"
   id="namedview6"
   showgrid="false"
   inkscape:zoom="26.700352"
   inkscape:cx="8.0604415"
   inkscape:cy="9.7255298"
   inkscape:window-x="-8"
   inkscape:window-y="168"
   inkscape:window-maximized="1"
   inkscape:current-layer="socialicious"
   showguides="true"
   inkscape:guide-bbox="true" />
<style
   type="text/css"
   id="style3">

	.st0{fill:#464342;}
	.st1{fill:#E04B26;}
	.st2{fill:#E74B24;}
	.st3{fill:#E94C88;}
	.st4{fill:#1AB6EA;}
	.st5{fill:#EA2429;}
	.st6{fill:#EC1E82;}
	.st7{fill:#B9B9BA;}
	.st8{fill:#EE3E53;}
	.st9{fill:#EE4977;}
	.st10{fill:#5496D0;}
	.st11{fill:#BBBBBB;}
	.st12{fill:#BCBCBC;}
	.st13{fill:#F16722;}
	.st14{fill:#5A471C;}
	.st15{fill:url(#SVGID_1_);}
	.st16{fill:url(#SVGID_2_);}
	.st17{fill:#2AA9E0;}
	.st18{fill-rule:evenodd;clip-rule:evenodd;fill:#BBBBBB;}
	.st19{fill-rule:evenodd;clip-rule:evenodd;fill:#BCBCBC;}
	.st20{fill:#C93C27;}
	.st21{fill:#638BB0;}
	.st22{fill:#CA2027;}
	.st23{fill:#30302F;}
	.st24{fill:#34373D;}
	.st25{fill:#00405D;}
	.st26{fill:#007EE5;}
	.st27{fill:#00A8E1;}
	.st28{fill-rule:evenodd;clip-rule:evenodd;fill:#FFFFFF;}
	.st29{fill:#035795;}
	.st30{fill:#3C5A97;}
	.st31{fill:#3F64AE;}
	.st32{fill:#3F729B;}
	.st33{fill:#A42F23;}
	.st34{fill:#75C044;}
	.st35{fill:#A72723;}
	.st36{fill:#DB2726;}
	.st37{fill:#DD3333;}
	.st38{fill:url(#soundcloud_2_);}
	.st39{fill:#442D86;}
	.st40{fill:#44556B;}

</style>
<path
   id="github"
   class="st12"
   d="m 12.540384,17.157905 c -0.432347,0.08647 -0.58799,-0.190232 -0.58799,-0.415051 0,-0.276702 0.01729,-1.21057 0.01729,-2.369259 0,-0.812809 -0.276701,-1.331625 -0.587992,-1.608327 1.919617,-0.207526 3.942997,-0.95116 3.942997,-4.2715846 0,-0.9511615 -0.328582,-1.7120909 -0.881985,-2.3173756 0.08647,-0.22482 0.380465,-1.0895123 -0.08647,-2.2827878 0,0 -0.726342,-0.22482 -2.369257,0.8819861 C 11.295224,4.585274 10.551589,4.4815108 9.8252474,4.4815108 9.0989062,4.4815108 8.3552707,4.585274 7.6635169,4.7755061 5.9860169,3.6514062 5.2596752,3.89352 5.2596752,3.89352 4.7927414,5.0867955 5.0867367,5.9687817 5.1732059,6.1763078 4.6198029,6.7815925 4.273926,7.559816 4.273926,8.4936834 c 0,3.3204246 2.02338,4.0467646 3.9429971,4.2715846 -0.2421138,0.207527 -0.4669339,0.605285 -0.5534031,1.158689 -0.5015216,0.224818 -1.7466785,0.605283 -2.5076079,-0.726343 0,0 -0.44964,-0.830105 -1.3316261,-0.899279 0,0 -0.8473986,-0.01729 -0.051881,0.518815 0,0 0.5706969,0.259408 0.9684555,1.262451 0,0 0.5015216,1.539152 2.9053663,1.020337 0,0.726341 0.017294,1.4008 0.017294,1.608328 0,0.22482 -0.1556445,0.501522 -0.5879908,0.415052 -3.4414764,-1.106807 -5.9144966,-4.35805 -5.9144966,-8.1799931 0,-4.7731033 3.8738218,-8.64692549 8.646923,-8.64692549 4.7731016,0 8.6469246,3.87382219 8.6469246,8.64692549 0,3.8219431 -2.473021,7.0731861 -5.914497,8.2145801 z"
   inkscape:connector-curvature="0"
   style="fill:#bcbcbc" />
</svg>