<?xml version="1.0" encoding="UTF-8" standalone="no"?>
<!-- Generator: Adobe Illustrator 16.0.0, SVG Export Plug-In . SVG Version: 6.00 Build 0)  -->

<svg
   xmlns:dc="http://purl.org/dc/elements/1.1/"
   xmlns:cc="http://creativecommons.org/ns#"
   xmlns:rdf="http://www.w3.org/1999/02/22-rdf-syntax-ns#"
   xmlns:svg="http://www.w3.org/2000/svg"
   xmlns="http://www.w3.org/2000/svg"
   xmlns:sodipodi="http://sodipodi.sourceforge.net/DTD/sodipodi-0.dtd"
   xmlns:inkscape="http://www.inkscape.org/namespaces/inkscape"
   version="1.1"
   id="socialicious"
   x="0px"
   y="0px"
   width="20"
   height="20"
   viewBox="0 0 20 20"
   xml:space="preserve"
   inkscape:version="0.48.4 r9939"
   sodipodi:docname="icon_wordpress.svg"><metadata
   id="metadata22"><rdf:RDF><cc:Work
       rdf:about=""><dc:format>image/svg+xml</dc:format><dc:type
         rdf:resource="http://purl.org/dc/dcmitype/StillImage" /></cc:Work></rdf:RDF></metadata><defs
   id="defs20" /><sodipodi:namedview
   pagecolor="#ffffff"
   bordercolor="#666666"
   borderopacity="1"
   objecttolerance="10"
   gridtolerance="10"
   guidetolerance="10"
   inkscape:pageopacity="0"
   inkscape:pageshadow="2"
   inkscape:window-width="1280"
   inkscape:window-height="961"
   id="namedview18"
   showgrid="false"
   inkscape:zoom="26.700352"
   inkscape:cx="9.2870442"
   inkscape:cy="9.8855631"
   inkscape:window-x="-8"
   inkscape:window-y="168"
   inkscape:window-maximized="1"
   inkscape:current-layer="socialicious" />
<style
   type="text/css"
   id="style3">

	.st0{fill:#464342;}
	.st1{fill:#E04B26;}
	.st2{fill:#E74B24;}
	.st3{fill:#E94C88;}
	.st4{fill:#1AB6EA;}
	.st5{fill:#EA2429;}
	.st6{fill:#EC1E82;}
	.st7{fill:#B9B9BA;}
	.st8{fill:#EE3E53;}
	.st9{fill:#EE4977;}
	.st10{fill:#5496D0;}
	.st11{fill:#BBBBBB;}
	.st12{fill:#BCBCBC;}
	.st13{fill:#F16722;}
	.st14{fill:#5A471C;}
	.st15{fill:url(#SVGID_1_);}
	.st16{fill:url(#SVGID_2_);}
	.st17{fill:#2AA9E0;}
	.st18{fill-rule:evenodd;clip-rule:evenodd;fill:#BBBBBB;}
	.st19{fill-rule:evenodd;clip-rule:evenodd;fill:#BCBCBC;}
	.st20{fill:#C93C27;}
	.st21{fill:#638BB0;}
	.st22{fill:#CA2027;}
	.st23{fill:#30302F;}
	.st24{fill:#34373D;}
	.st25{fill:#00405D;}
	.st26{fill:#007EE5;}
	.st27{fill:#00A8E1;}
	.st28{fill-rule:evenodd;clip-rule:evenodd;fill:#FFFFFF;}
	.st29{fill:#035795;}
	.st30{fill:#3C5A97;}
	.st31{fill:#3F64AE;}
	.st32{fill:#3F729B;}
	.st33{fill:#A42F23;}
	.st34{fill:#75C044;}
	.st35{fill:#A72723;}
	.st36{fill:#DB2726;}
	.st37{fill:#DD3333;}
	.st38{fill:url(#soundcloud_2_);}
	.st39{fill:#442D86;}
	.st40{fill:#44556B;}

</style>
<g
   id="wordpress"
   transform="matrix(0.17855356,0,0,0.17855356,0.84227414,0.08474577)">
	<g
   id="g6">
		<path
   class="st12"
   d="m 9.8,50 c 0,15.9 9.2,29.7 22.7,36.2 L 13.3,33.6 C 11.1,38.6 9.8,44.2 9.8,50 z"
   id="path8"
   inkscape:connector-curvature="0"
   style="fill:#bcbcbc" />
		<path
   class="st12"
   d="m 77.1,48 c 0,-5 -1.8,-8.4 -3.3,-11.1 -2,-3.3 -3.9,-6.1 -3.9,-9.4 0,-3.7 2.8,-7.1 6.7,-7.1 0.2,0 0.3,0 0.5,0 C 70,13.8 60.5,9.8 50,9.8 36,9.8 23.6,17 16.4,27.9 c 0.9,0 1.8,0 2.6,0 4.2,0 10.7,-0.5 10.7,-0.5 2.2,-0.1 2.4,3.1 0.3,3.3 0,0 -2.2,0.3 -4.6,0.4 L 40,74.7 48.8,48.3 42.5,31.1 c -2.2,-0.1 -4.2,-0.4 -4.2,-0.4 -2.2,-0.1 -1.9,-3.4 0.3,-3.3 0,0 6.6,0.5 10.6,0.5 4.2,0 10.7,-0.5 10.7,-0.5 2.2,-0.1 2.4,3.1 0.3,3.3 0,0 -2.2,0.3 -4.6,0.4 l 14.5,43.2 4,-13.4 c 1.7,-5.5 3,-9.5 3,-12.9 z"
   id="path10"
   inkscape:connector-curvature="0"
   style="fill:#bcbcbc" />
		<path
   class="st12"
   d="m 50.7,53.5 -12.1,35 c 3.6,1.1 7.4,1.6 11.4,1.6 4.7,0 9.2,-0.8 13.3,-2.3 C 63.2,87.6 63.1,87.4 63,87.2 L 50.7,53.5 z"
   id="path12"
   inkscape:connector-curvature="0"
   style="fill:#bcbcbc" />
		<path
   class="st12"
   d="M 50,0 C 22.4,0 0,22.4 0,50 0,77.6 22.4,100 50,100 77.6,100 100,77.6 100,50 100,22.4 77.6,0 50,0 z m 0,94.7 C 25.4,94.7 5.3,74.6 5.3,50 5.3,25.4 25.3,5.3 50,5.3 74.6,5.3 94.7,25.3 94.7,50 94.7,74.6 74.6,94.7 50,94.7 z"
   id="path14"
   inkscape:connector-curvature="0"
   style="fill:#bcbcbc" />
		<path
   class="st12"
   d="m 85.3,30.7 c 0.2,1.3 0.3,2.7 0.3,4.1 0,4.1 -0.8,8.7 -3.1,14.4 L 70.2,84.7 c 11.9,-7 20,-19.9 20,-34.7 0,-7 -1.8,-13.6 -4.9,-19.3 z"
   id="path16"
   inkscape:connector-curvature="0"
   style="fill:#bcbcbc" />
	</g>
</g>
</svg>