<?xml version="1.0" encoding="UTF-8" standalone="no"?>
<!-- Generator: Adobe Illustrator 16.0.0, SVG Export Plug-In . SVG Version: 6.00 Build 0)  -->

<svg
   xmlns:dc="http://purl.org/dc/elements/1.1/"
   xmlns:cc="http://creativecommons.org/ns#"
   xmlns:rdf="http://www.w3.org/1999/02/22-rdf-syntax-ns#"
   xmlns:svg="http://www.w3.org/2000/svg"
   xmlns="http://www.w3.org/2000/svg"
   xmlns:sodipodi="http://sodipodi.sourceforge.net/DTD/sodipodi-0.dtd"
   xmlns:inkscape="http://www.inkscape.org/namespaces/inkscape"
   version="1.1"
   id="socialicious"
   x="0px"
   y="0px"
   width="20"
   height="20"
   viewBox="0 0 20 20"
   xml:space="preserve"
   inkscape:version="0.48.4 r9939"
   sodipodi:docname="icon_wordpress-sign.svg"><metadata
   id="metadata3064"><rdf:RDF><cc:Work
       rdf:about=""><dc:format>image/svg+xml</dc:format><dc:type
         rdf:resource="http://purl.org/dc/dcmitype/StillImage" /></cc:Work></rdf:RDF></metadata><defs
   id="defs3062" /><sodipodi:namedview
   pagecolor="#ffffff"
   bordercolor="#666666"
   borderopacity="1"
   objecttolerance="10"
   gridtolerance="10"
   guidetolerance="10"
   inkscape:pageopacity="0"
   inkscape:pageshadow="2"
   inkscape:window-width="1280"
   inkscape:window-height="961"
   id="namedview3060"
   showgrid="false"
   inkscape:zoom="2.36"
   inkscape:cx="50"
   inkscape:cy="50"
   inkscape:window-x="-8"
   inkscape:window-y="168"
   inkscape:window-maximized="1"
   inkscape:current-layer="socialicious" />
<style
   type="text/css"
   id="style3053">

	.st0{fill:#464342;}
	.st1{fill:#E04B26;}
	.st2{fill:#E74B24;}
	.st3{fill:#E94C88;}
	.st4{fill:#1AB6EA;}
	.st5{fill:#EA2429;}
	.st6{fill:#EC1E82;}
	.st7{fill:#B9B9BA;}
	.st8{fill:#EE3E53;}
	.st9{fill:#EE4977;}
	.st10{fill:#5496D0;}
	.st11{fill:#BBBBBB;}
	.st12{fill:#BCBCBC;}
	.st13{fill:#F16722;}
	.st14{fill:#5A471C;}
	.st15{fill:url(#SVGID_1_);}
	.st16{fill:url(#SVGID_2_);}
	.st17{fill:#2AA9E0;}
	.st18{fill-rule:evenodd;clip-rule:evenodd;fill:#BBBBBB;}
	.st19{fill-rule:evenodd;clip-rule:evenodd;fill:#BCBCBC;}
	.st20{fill:#C93C27;}
	.st21{fill:#638BB0;}
	.st22{fill:#CA2027;}
	.st23{fill:#30302F;}
	.st24{fill:#34373D;}
	.st25{fill:#00405D;}
	.st26{fill:#007EE5;}
	.st27{fill:#00A8E1;}
	.st28{fill-rule:evenodd;clip-rule:evenodd;fill:#FFFFFF;}
	.st29{fill:#035795;}
	.st30{fill:#3C5A97;}
	.st31{fill:#3F64AE;}
	.st32{fill:#3F729B;}
	.st33{fill:#A42F23;}
	.st34{fill:#75C044;}
	.st35{fill:#A72723;}
	.st36{fill:#DB2726;}
	.st37{fill:#DD3333;}
	.st38{fill:url(#soundcloud_2_);}
	.st39{fill:#442D86;}
	.st40{fill:#44556B;}

</style>
<g
   id="wordpress_1_"
   transform="scale(0.2,0.2)">
	<path
   class="st0"
   d="M 50,17.7 C 32.2,17.7 17.7,32.2 17.7,50 17.7,67.8 32.2,82.3 50,82.3 67.8,82.3 82.3,67.8 82.3,50 82.3,32.2 67.8,17.7 50,17.7 z M 21,50 c 0,-4.2 0.9,-8.2 2.5,-11.8 L 37.3,76.1 C 27.7,71.4 21,61.5 21,50 z m 29,29 c -2.8,0 -5.6,-0.4 -8.2,-1.2 L 50.5,52.5 59.4,77 c 0.1,0.1 0.1,0.3 0.2,0.4 -3,1 -6.2,1.6 -9.6,1.6 z m 4,-42.6 c 1.7,-0.1 3.3,-0.3 3.3,-0.3 1.6,-0.2 1.4,-2.5 -0.2,-2.4 0,0 -4.7,0.4 -7.7,0.4 -2.9,0 -7.6,-0.4 -7.6,-0.4 -1.6,-0.1 -1.7,2.3 -0.2,2.4 0,0 1.5,0.2 3,0.3 l 4.5,12.4 -6.3,19 -10.6,-31.4 c 1.7,-0.1 3.3,-0.3 3.3,-0.3 1.6,-0.2 1.4,-2.5 -0.2,-2.4 0,0 -4.7,0.4 -7.7,0.4 -0.5,0 -1.2,0 -1.9,0 C 31,26.2 39.9,21 50,21 c 7.5,0 14.4,2.9 19.6,7.6 -0.1,0 -0.2,0 -0.4,0 -2.9,0 -4.9,2.5 -4.9,5.1 0,2.4 1.4,4.4 2.8,6.8 1.1,1.9 2.4,4.4 2.4,8 0,2.5 -1,5.4 -2.2,9.4 L 64.4,67.6 54,36.4 z M 75.5,36.1 C 77.7,40.2 79,45 79,50 79,60.7 73.2,70 64.6,75.1 l 8.9,-25.6 c 1.7,-4.1 2.2,-7.4 2.2,-10.4 -0.1,-1.1 -0.1,-2.1 -0.2,-3 z"
   id="path3056"
   inkscape:connector-curvature="0"
   style="fill:#464342" />
	<path
   class="st0"
   d="M 89.2,0 H 10.8 C 4.8,0 0,4.8 0,10.8 v 78.4 c 0,6 4.8,10.8 10.8,10.8 h 78.4 c 6,0 10.8,-4.8 10.8,-10.8 V 10.8 C 100,4.8 95.2,0 89.2,0 z M 50,86.1 C 30.1,86.1 13.9,69.9 13.9,50 13.9,30.1 30.1,13.9 50,13.9 69.9,13.9 86.1,30.1 86.1,50 86.1,69.9 69.9,86.1 50,86.1 z"
   id="path3058"
   inkscape:connector-curvature="0"
   style="fill:#464342" />
</g>
</svg>