<?xml version="1.0" encoding="UTF-8" standalone="no"?>
<!-- Generator: Adobe Illustrator 16.0.0, SVG Export Plug-In . SVG Version: 6.00 Build 0)  -->

<svg
   xmlns:dc="http://purl.org/dc/elements/1.1/"
   xmlns:cc="http://creativecommons.org/ns#"
   xmlns:rdf="http://www.w3.org/1999/02/22-rdf-syntax-ns#"
   xmlns:svg="http://www.w3.org/2000/svg"
   xmlns="http://www.w3.org/2000/svg"
   xmlns:sodipodi="http://sodipodi.sourceforge.net/DTD/sodipodi-0.dtd"
   xmlns:inkscape="http://www.inkscape.org/namespaces/inkscape"
   version="1.1"
   id="socialicious"
   x="0px"
   y="0px"
   width="20"
   height="20"
   viewBox="0 0 20 20"
   xml:space="preserve"
   inkscape:version="0.48.4 r9939"
   sodipodi:docname="icon_github-sign.svg"><metadata
   id="metadata3010"><rdf:RDF><cc:Work
       rdf:about=""><dc:format>image/svg+xml</dc:format><dc:type
         rdf:resource="http://purl.org/dc/dcmitype/StillImage" /></cc:Work></rdf:RDF></metadata><defs
   id="defs3008" /><sodipodi:namedview
   pagecolor="#ffffff"
   bordercolor="#666666"
   borderopacity="1"
   objecttolerance="10"
   gridtolerance="10"
   guidetolerance="10"
   inkscape:pageopacity="0"
   inkscape:pageshadow="2"
   inkscape:window-width="1280"
   inkscape:window-height="961"
   id="namedview3006"
   showgrid="false"
   inkscape:zoom="2.36"
   inkscape:cx="50"
   inkscape:cy="50"
   inkscape:window-x="-8"
   inkscape:window-y="168"
   inkscape:window-maximized="1"
   inkscape:current-layer="socialicious" />
<style
   type="text/css"
   id="style3003">

	.st0{fill:#464342;}
	.st1{fill:#E04B26;}
	.st2{fill:#E74B24;}
	.st3{fill:#E94C88;}
	.st4{fill:#1AB6EA;}
	.st5{fill:#EA2429;}
	.st6{fill:#EC1E82;}
	.st7{fill:#B9B9BA;}
	.st8{fill:#EE3E53;}
	.st9{fill:#EE4977;}
	.st10{fill:#5496D0;}
	.st11{fill:#BBBBBB;}
	.st12{fill:#BCBCBC;}
	.st13{fill:#F16722;}
	.st14{fill:#5A471C;}
	.st15{fill:url(#SVGID_1_);}
	.st16{fill:url(#SVGID_2_);}
	.st17{fill:#2AA9E0;}
	.st18{fill-rule:evenodd;clip-rule:evenodd;fill:#BBBBBB;}
	.st19{fill-rule:evenodd;clip-rule:evenodd;fill:#BCBCBC;}
	.st20{fill:#C93C27;}
	.st21{fill:#638BB0;}
	.st22{fill:#CA2027;}
	.st23{fill:#30302F;}
	.st24{fill:#34373D;}
	.st25{fill:#00405D;}
	.st26{fill:#007EE5;}
	.st27{fill:#00A8E1;}
	.st28{fill-rule:evenodd;clip-rule:evenodd;fill:#FFFFFF;}
	.st29{fill:#035795;}
	.st30{fill:#3C5A97;}
	.st31{fill:#3F64AE;}
	.st32{fill:#3F729B;}
	.st33{fill:#A42F23;}
	.st34{fill:#75C044;}
	.st35{fill:#A72723;}
	.st36{fill:#DB2726;}
	.st37{fill:#DD3333;}
	.st38{fill:url(#soundcloud_2_);}
	.st39{fill:#442D86;}
	.st40{fill:#44556B;}

</style>
<path
   id="github_1_"
   d="M 17.84,0 H 2.16 C 0.96,0 0,0.96 0,2.16 V 17.84 C 0,19.04 0.96,20 2.16,20 H 17.84 C 19.04,20 20,19.04 20,17.84 V 2.16 C 20,0.96 19.04,0 17.84,0 z m -5.72,16.5 c -0.34,0.06 -0.46,-0.14 -0.46,-0.32 0,-0.22 0,-0.94 0,-1.84 0,-0.62 -0.22,-1.02 -0.46,-1.24 1.48,-0.16 3.04,-0.72 3.04,-3.3 0,-0.72 -0.26,-1.32 -0.68,-1.8 0.06,-0.16 0.3,-0.84 -0.06,-1.76 0,0 -0.56,-0.18 -1.84,0.68 C 11.12,6.78 10.56,6.7 9.98,6.7 9.42,6.7 8.84,6.78 8.32,6.92 7.04,6.06 6.48,6.24 6.48,6.24 6.12,7.16 6.34,7.84 6.42,8 6,8.46 5.74,9.06 5.74,9.8 c 0,2.56 1.56,3.12 3.04,3.3 -0.2,0.16 -0.36,0.46 -0.42,0.9 -0.38,0.18 -1.34,0.46 -1.94,-0.56 0,0 -0.36,-0.64 -1.02,-0.68 0,0 -0.66,0 -0.04,0.4 0,0 0.44,0.2 0.74,0.98 0,0 0.4,1.2 2.24,0.78 0,0.56 0,1.08 0,1.24 0,0.18 -0.12,0.38 -0.46,0.32 C 5.24,15.6 3.32,13.1 3.32,10.16 3.32,6.48 6.3,3.5 9.98,3.5 c 3.68,0 6.66,2.98 6.66,6.66 0.02,2.96 -1.88,5.44 -4.52,6.34 z M 8.3,14.3 c 0,0.06 -0.04,0.1 -0.12,0.12 -0.08,0.02 -0.14,-0.02 -0.16,-0.08 0,-0.06 0.04,-0.1 0.12,-0.12 0.08,-0.02 0.16,0.02 0.16,0.08 z m -0.5,0.08 c 0,0.06 -0.06,0.1 -0.14,0.1 -0.08,0 -0.14,-0.04 -0.14,-0.1 0,-0.06 0.06,-0.1 0.14,-0.1 0.08,0 0.14,0.04 0.14,0.1 z M 7.24,14.34 C 7.22,14.4 7.14,14.42 7.08,14.4 7,14.38 6.96,14.32 6.98,14.26 7,14.2 7.08,14.18 7.14,14.2 c 0.08,0.02 0.12,0.08 0.1,0.14 z M 6.76,14.12 C 6.72,14.16 6.64,14.14 6.58,14.1 6.52,14.04 6.5,13.96 6.54,13.92 c 0.04,-0.04 0.12,-0.02 0.18,0.02 0.06,0.08 0.06,0.14 0.04,0.18 z M 6.4,13.76 c -0.04,0.02 -0.1,0 -0.14,-0.06 -0.04,-0.06 -0.04,-0.14 0,-0.16 0.04,-0.02 0.1,0 0.14,0.06 0.04,0.06 0.04,0.12 0,0.16 z M 6.12,13.38 C 6.08,13.4 6.02,13.4 5.98,13.34 5.94,13.3 5.92,13.24 5.96,13.2 6,13.18 6.06,13.18 6.1,13.24 c 0.06,0.04 0.06,0.1 0.02,0.14 z M 5.86,13.08 C 5.84,13.12 5.8,13.12 5.74,13.1 5.7,13.08 5.66,13.04 5.68,13 5.7,12.96 5.74,12.96 5.8,12.98 5.84,13 5.88,13.04 5.86,13.08 z"
   inkscape:connector-curvature="0" />
</svg>