<?xml version="1.0" encoding="UTF-8" standalone="no"?>
<!-- Generator: Adobe Illustrator 16.0.0, SVG Export Plug-In . SVG Version: 6.00 Build 0)  -->

<svg
   xmlns:dc="http://purl.org/dc/elements/1.1/"
   xmlns:cc="http://creativecommons.org/ns#"
   xmlns:rdf="http://www.w3.org/1999/02/22-rdf-syntax-ns#"
   xmlns:svg="http://www.w3.org/2000/svg"
   xmlns="http://www.w3.org/2000/svg"
   xmlns:sodipodi="http://sodipodi.sourceforge.net/DTD/sodipodi-0.dtd"
   xmlns:inkscape="http://www.inkscape.org/namespaces/inkscape"
   version="1.1"
   id="socialicious"
   x="0px"
   y="0px"
   width="20"
   height="20"
   viewBox="0 0 20 20"
   xml:space="preserve"
   inkscape:version="0.48.4 r9939"
   sodipodi:docname="icon_aboutme-sign.svg"><metadata
   id="metadata15"><rdf:RDF><cc:Work
       rdf:about=""><dc:format>image/svg+xml</dc:format><dc:type
         rdf:resource="http://purl.org/dc/dcmitype/StillImage" /></cc:Work></rdf:RDF></metadata><defs
   id="defs13" /><sodipodi:namedview
   pagecolor="#ffffff"
   bordercolor="#666666"
   borderopacity="1"
   objecttolerance="10"
   gridtolerance="10"
   guidetolerance="10"
   inkscape:pageopacity="0"
   inkscape:pageshadow="2"
   inkscape:window-width="1280"
   inkscape:window-height="961"
   id="namedview11"
   showgrid="false"
   inkscape:zoom="9.44"
   inkscape:cx="-7.333107"
   inkscape:cy="12.324486"
   inkscape:window-x="-8"
   inkscape:window-y="168"
   inkscape:window-maximized="1"
   inkscape:current-layer="socialicious" />
<style
   type="text/css"
   id="style3">

	.st0{fill:#464342;}
	.st1{fill:#E04B26;}
	.st2{fill:#E74B24;}
	.st3{fill:#E94C88;}
	.st4{fill:#1AB6EA;}
	.st5{fill:#EA2429;}
	.st6{fill:#EC1E82;}
	.st7{fill:#B9B9BA;}
	.st8{fill:#EE3E53;}
	.st9{fill:#EE4977;}
	.st10{fill:#5496D0;}
	.st11{fill:#BBBBBB;}
	.st12{fill:#BCBCBC;}
	.st13{fill:#F16722;}
	.st14{fill:#5A471C;}
	.st15{fill:url(#SVGID_1_);}
	.st16{fill:url(#SVGID_2_);}
	.st17{fill:#2AA9E0;}
	.st18{fill-rule:evenodd;clip-rule:evenodd;fill:#BBBBBB;}
	.st19{fill-rule:evenodd;clip-rule:evenodd;fill:#BCBCBC;}
	.st20{fill:#C93C27;}
	.st21{fill:#638BB0;}
	.st22{fill:#CA2027;}
	.st23{fill:#30302F;}
	.st24{fill:#34373D;}
	.st25{fill:#00405D;}
	.st26{fill:#007EE5;}
	.st27{fill:#00A8E1;}
	.st28{fill-rule:evenodd;clip-rule:evenodd;fill:#FFFFFF;}
	.st29{fill:#035795;}
	.st30{fill:#3C5A97;}
	.st31{fill:#3F64AE;}
	.st32{fill:#3F729B;}
	.st33{fill:#A42F23;}
	.st34{fill:#75C044;}
	.st35{fill:#A72723;}
	.st36{fill:#DB2726;}
	.st37{fill:#DD3333;}
	.st38{fill:url(#soundcloud_2_);}
	.st39{fill:#442D86;}
	.st40{fill:#44556B;}

</style>
<g
   id="g5"
   transform="translate(0,-80)">
	<path
   class="st25"
   d="m 14.36,88.34 c -0.8,0 -1.24,0.58 -1.32,1.22 h 2.66 c -0.08,-0.6 -0.5,-1.22 -1.34,-1.22 z"
   id="path7"
   inkscape:connector-curvature="0"
   style="fill:#00405d" />
	<path
   class="st25"
   d="M 17.84,80 H 2.16 C 0.96,80 0,80.96 0,82.16 V 97.84 C 0,99.04 0.96,100 2.16,100 H 17.84 C 19.04,100 20,99.04 20,97.84 V 82.16 C 20,80.96 19.04,80 17.84,80 z M 10.66,92.54 H 9.3 c 0,0 0,-2.5 0,-3.16 0,-0.56 -0.26,-0.88 -0.78,-0.88 -0.48,0 -0.78,0.34 -1,0.58 0,1.26 0,3.48 0,3.48 H 6.16 c 0,0 0,-2.5 0,-3.16 0,-0.56 -0.24,-0.88 -0.76,-0.88 -0.48,0 -0.8,0.34 -1,0.58 v 3.48 H 3.04 v -5.1 H 4.4 v 0.58 c 0.24,-0.28 0.76,-0.74 1.56,-0.74 0.72,0 1.22,0.3 1.44,0.92 0.3,-0.44 0.86,-0.92 1.68,-0.92 0.98,0 1.56,0.58 1.56,1.72 0.02,1.26 0.02,3.5 0.02,3.5 z m 6.28,-2.1 h -3.88 c 0.14,0.66 0.68,1.14 1.46,1.14 0.42,0 1.02,-0.16 1.38,-0.52 l 0.68,0.78 c -0.62,0.64 -1.54,0.82 -2.16,0.82 -1.52,0 -2.72,-1.1 -2.72,-2.66 0,-1.46 1.1,-2.66 2.64,-2.66 1.5,0 2.6,1.16 2.6,2.66 v 0.44 z"
   id="path9"
   inkscape:connector-curvature="0"
   style="fill:#00405d" />
</g>
</svg>